<?xml version="1.0" encoding="UTF-8" standalone="no"?>
<!-- Created with Inkscape (http://www.inkscape.org/) -->

<svg
   width="48"
   height="48"
   viewBox="0 0 12.7 12.7"
   version="1.1"
   id="svg1"
   inkscape:version="1.4.2 (ebf0e940d0, 2025-05-08)"
   sodipodi:docname="logo.svg"
   xmlns:inkscape="http://www.inkscape.org/namespaces/inkscape"
   xmlns:sodipodi="http://sodipodi.sourceforge.net/DTD/sodipodi-0.dtd"
   xmlns="http://www.w3.org/2000/svg"
   xmlns:svg="http://www.w3.org/2000/svg">
  <sodipodi:namedview
     id="namedview1"
     pagecolor="#505050"
     bordercolor="#ffffff"
     borderopacity="1"
     inkscape:showpageshadow="0"
     inkscape:pageopacity="0"
     inkscape:pagecheckerboard="1"
     inkscape:deskcolor="#505050"
     inkscape:document-units="mm"
     inkscape:zoom="17.98067"
     inkscape:cx="16.573354"
     inkscape:cy="23.942378"
     inkscape:window-width="2850"
     inkscape:window-height="1106"
     inkscape:window-x="24"
     inkscape:window-y="21"
     inkscape:window-maximized="0"
     inkscape:current-layer="layer1" />
  <defs
     id="defs1" />
  <g
     inkscape:label="Layer 1"
     inkscape:groupmode="layer"
     id="layer1">
    <rect
       style="fill:#000000;stroke-width:0.264583"
       id="rect1"
       width="12.7"
       height="12.7"
       x="0"
       y="0" />
    <path
       id="text3"
       style="font-style:normal;font-variant:normal;font-weight:600;font-stretch:normal;font-size:12.9548px;font-family:Inter;-inkscape-font-specification:'Inter, Semi-Bold';font-variant-ligatures:normal;font-variant-caps:normal;font-variant-numeric:normal;font-variant-east-asian:normal;text-align:start;writing-mode:lr-tb;direction:ltr;text-anchor:start;fill:#ffffff;stroke:#393939;stroke-width:0.0849781;stroke-dasharray:none;stroke-opacity:1"
       d="M 4.3083972 0.66001418 C 3.0976724 0.66001418 2.1766631 0.93851734 1.5453903 1.4951706 C 0.91411747 2.0518238 0.59862153 2.7793043 0.59862153 3.6775402 C 0.59862153 4.3143178 0.75884915 4.8623444 1.0791966 5.322005 C 1.399544 5.7816656 1.8703082 6.1210377 2.4921591 6.3403253 L 0.20972726 10.085159 L 2.3225796 10.085159 L 4.3934865 6.6250985 L 6.3577321 6.6250985 L 6.3577321 10.085159 L 6.4805724 10.085159 L 8.2009351 10.085159 L 8.2446783 10.085159 L 8.2446783 3.0389174 C 8.3892852 3.3180347 8.5203354 3.56868 8.6377671 3.7911821 C 8.7980152 4.0948102 8.9497949 4.3753371 9.0931748 4.6325776 C 9.2407718 4.8898181 9.396701 5.1492327 9.5611662 5.4106902 L 12.502142 10.085159 L 14.419049 10.085159 L 14.419049 0.66001418 L 12.704678 0.66001418 L 12.704678 5.6067782 C 12.704678 5.8935381 12.712977 6.2585144 12.729846 6.7013054 C 12.746714 7.1440964 12.77221 7.5930765 12.805947 8.0485187 C 12.599311 7.5762083 12.397138 7.1609188 12.198936 6.802469 C 12.000734 6.439802 11.816934 6.1235624 11.648252 5.8536707 L 8.3908881 0.66001418 L 8.2446783 0.66001418 L 6.4805724 0.66001418 L 4.3083972 0.66001418 z M 4.5978208 2.0771952 L 6.3577321 2.0771952 L 6.3577321 5.2270806 L 4.5840387 5.2270806 C 3.872679 5.2270806 3.3522388 5.094341 3.0224694 4.8286656 C 2.6927001 4.5587731 2.5275131 4.1751545 2.5275131 3.6775402 C 2.5275131 3.1714918 2.6927001 2.7793392 3.0224694 2.5010126 C 3.3522388 2.2184689 3.8770391 2.0771952 4.5978208 2.0771952 z "
       transform="scale(0.86239391,1.1595629)" />
  </g>
</svg>
